# xmcd
#
# Track frame offsets: 
#        150
#        38615
#        72100
#        115387
#        147630
#        185854
#        273166
#
# Disc length: 4092 seconds
#
# Revision: 2
# Processed by: cddbd v1.5.1PL2 Copyright (c) Steve Scherf et al.
# Submitted via: ExactAudioCopy v0.95b2
#
DISCID=690ffa07
DTITLE=Popa Chubby - Meisenfrei Blues Club Bremen [CD1]
DYEAR=2000
DGENRE=Blues
TTITLE0=Lie Down With The Blues
TTITLE1=Savin' My Love Up For My Lover
TTITLE2=She's 19 Years Old
TTITLE3=Caffeine And Nicotine
TTITLE4=Sad Day In New York City
TTITLE5=NYC Blues
TTITLE6=Stoop Down Baby
EXTD=
EXTT0=
EXTT1=
EXTT2=
EXTT3=
EXTT4=
EXTT5=
EXTT6=
PLAYORDER=
